<svg width="25" height="24" viewBox="0 0 25 24" fill="none" xmlns="http://www.w3.org/2000/svg">
<path d="M21.4999 6.73046C21.4799 6.73046 21.4499 6.73046 21.4199 6.73046C16.1299 6.20046 10.8499 6.00046 5.61992 6.53046L3.57992 6.73046C3.15992 6.77046 2.78992 6.47046 2.74992 6.05046C2.70992 5.63046 3.00992 5.27046 3.41992 5.23046L5.45992 5.03046C10.7799 4.49046 16.1699 4.70046 21.5699 5.23046C21.9799 5.27046 22.2799 5.64046 22.2399 6.05046C22.2099 6.44046 21.8799 6.73046 21.4999 6.73046Z" fill="#CA3636"/>
<path d="M9.00001 5.72C8.96001 5.72 8.92001 5.72 8.87001 5.71C8.47001 5.64 8.19001 5.25 8.26001 4.85L8.48001 3.54C8.64001 2.58 8.86001 1.25 11.19 1.25H13.81C16.15 1.25 16.37 2.63 16.52 3.55L16.74 4.85C16.81 5.26 16.53 5.65 16.13 5.71C15.72 5.78 15.33 5.5 15.27 5.1L15.05 3.8C14.91 2.93 14.88 2.76 13.82 2.76H11.2C10.14 2.76 10.12 2.9 9.97001 3.79L9.74001 5.09C9.68001 5.46 9.36001 5.72 9.00001 5.72Z" fill="#CA3636"/>
<path d="M15.7099 22.7515H9.2899C5.7999 22.7515 5.6599 20.8215 5.5499 19.2615L4.8999 9.19154C4.8699 8.78154 5.1899 8.42154 5.5999 8.39154C6.0199 8.37154 6.3699 8.68154 6.3999 9.09154L7.0499 19.1615C7.1599 20.6815 7.1999 21.2515 9.2899 21.2515H15.7099C17.8099 21.2515 17.8499 20.6815 17.9499 19.1615L18.5999 9.09154C18.6299 8.68154 18.9899 8.37154 19.3999 8.39154C19.8099 8.42154 20.1299 8.77154 20.0999 9.19154L19.4499 19.2615C19.3399 20.8215 19.1999 22.7515 15.7099 22.7515Z" fill="#CA3636"/>
<path d="M14.1601 17.25H10.8301C10.4201 17.25 10.0801 16.91 10.0801 16.5C10.0801 16.09 10.4201 15.75 10.8301 15.75H14.1601C14.5701 15.75 14.9101 16.09 14.9101 16.5C14.9101 16.91 14.5701 17.25 14.1601 17.25Z" fill="#CA3636"/>
<path d="M15 13.25H10C9.59 13.25 9.25 12.91 9.25 12.5C9.25 12.09 9.59 11.75 10 11.75H15C15.41 11.75 15.75 12.09 15.75 12.5C15.75 12.91 15.41 13.25 15 13.25Z" fill="#CA3636"/>
</svg>
