<svg width="165" height="125" viewBox="0 0 165 125" fill="none" xmlns="http://www.w3.org/2000/svg">
<path d="M16.3517 6.78125H111.984L111.692 7.52133L104.548 25.286L17.3427 25.3577C17.3427 25.3577 14.1826 25.5344 12.4284 25.9313L12.6103 25.8673V10.5201C12.6103 10.0289 12.7071 9.5425 12.8951 9.08871C13.0832 8.63493 13.3588 8.22265 13.7063 7.87543C14.0537 7.52821 14.4662 7.25286 14.9201 7.06512C15.374 6.87737 15.8605 6.78091 16.3517 6.78125Z" fill="#4FB3BF"/>
<path d="M17.3478 25.3551L104.553 25.2834L114.719 1.49287e-05H156.461C157.504 -0.00200984 158.538 0.201947 159.502 0.600185C160.466 0.998423 161.342 1.5831 162.079 2.32068C162.817 3.05825 163.402 3.93421 163.8 4.89829C164.198 5.86237 164.402 6.89559 164.4 7.93868V116.322C164.402 117.365 164.198 118.398 163.8 119.362C163.402 120.326 162.817 121.202 162.079 121.94C161.342 122.678 160.466 123.262 159.502 123.66C158.538 124.059 157.504 124.263 156.461 124.261H8.33866C6.23319 124.261 4.21397 123.424 2.72518 121.935C1.23639 120.447 0.399994 118.427 0.399994 116.322V41.7395C0.408755 38.1546 1.58751 34.6706 3.75715 31.8169C5.9268 28.9632 8.96872 26.8957 12.4207 25.9287C14.1825 25.5318 17.3478 25.3551 17.3478 25.3551ZM2.1721 106.534V112.45H162.607V106.534H2.1721Z" fill="#003E43"/>
<path d="M2.14999 106.5H33.15V112.5H2.14999V106.5Z" fill="#4FB3BF"/>
</svg>
