<svg width="165" height="125" viewBox="0 0 165 125" fill="none" xmlns="http://www.w3.org/2000/svg">
<path d="M16.5517 6.78125H112.184L111.892 7.52133L104.748 25.286L17.5427 25.3577C17.5427 25.3577 14.3826 25.5344 12.6284 25.9313L12.8103 25.8673V10.5201C12.8103 10.0289 12.907 9.5425 13.0951 9.08871C13.2832 8.63493 13.5588 8.22265 13.9062 7.87543C14.2537 7.52821 14.6662 7.25286 15.1201 7.06512C15.574 6.87738 16.0605 6.78091 16.5517 6.78125V6.78125Z" fill="#4FB3BF"/>
<path d="M17.5478 25.3551L104.753 25.2834L111.898 7.51869L114.919 1.49287e-05H156.661C157.704 -0.00200984 158.738 0.201947 159.702 0.600185C160.666 0.998423 161.542 1.5831 162.279 2.32068C163.017 3.05825 163.602 3.93421 164 4.89829C164.398 5.86237 164.602 6.89559 164.6 7.93868V116.322C164.602 117.365 164.398 118.398 164 119.362C163.602 120.326 163.017 121.202 162.279 121.94C161.542 122.678 160.666 123.262 159.702 123.66C158.738 124.059 157.704 124.263 156.661 124.261H8.53867C6.4332 124.261 4.41398 123.424 2.92519 121.935C1.4364 120.447 0.600005 118.427 0.600005 116.322V41.7395C0.608766 38.1546 1.78752 34.6706 3.95716 31.8169C6.12681 28.9632 9.16873 26.8957 12.6207 25.9287C14.3826 25.5318 17.5478 25.3551 17.5478 25.3551ZM2.37212 106.534V112.45H162.807V106.534H2.37212Z" fill="#003E43"/>
<path d="M2.34998 106.5H33.35V112.5H2.34998V106.5Z" fill="#4FB3BF"/>
<path d="M65.4064 73.916C66.7704 73.3293 67.775 72.8527 68.4204 72.486C69.0804 72.134 69.5424 71.7673 69.8064 71.386C70.085 71.0193 70.2244 70.5573 70.2244 70H68.2004C67.379 70 66.6237 69.8167 65.9344 69.45C65.2597 69.0687 64.717 68.548 64.3064 67.888C63.9104 67.228 63.7124 66.4947 63.7124 65.688C63.7124 64.8813 63.9104 64.1407 64.3064 63.466C64.717 62.7913 65.2597 62.256 65.9344 61.86C66.6237 61.4493 67.379 61.244 68.2004 61.244C68.9924 61.244 69.7184 61.442 70.3784 61.838C71.0384 62.234 71.5517 62.7767 71.9184 63.466C72.2997 64.1407 72.4904 64.8813 72.4904 65.688V69.098C72.4904 70.3153 72.2704 71.3053 71.8304 72.068C71.405 72.8307 70.7597 73.476 69.8944 74.004C69.0437 74.5467 67.7824 75.1847 66.1104 75.918L65.4064 73.916ZM68.2004 67.734H70.2244V65.688C70.2244 65.116 70.0264 64.632 69.6304 64.236C69.2344 63.8253 68.7577 63.62 68.2004 63.62C67.6137 63.62 67.115 63.8253 66.7044 64.236C66.3084 64.632 66.1104 65.116 66.1104 65.688C66.1104 66.2747 66.3084 66.766 66.7044 67.162C67.115 67.5433 67.6137 67.734 68.2004 67.734ZM72.3804 67.602H73.6344C73.781 67.602 73.8544 67.6753 73.8544 67.822V69.78C73.8544 69.9267 73.781 70 73.6344 70H72.3804V67.602ZM73.6302 70C73.4836 70 73.4102 69.9267 73.4102 69.78V67.822C73.4102 67.6753 73.4836 67.602 73.6302 67.602H80.6482C81.1762 67.602 81.6309 67.4187 82.0122 67.052C82.3936 66.6853 82.5842 66.2233 82.5842 65.666C82.5842 64.962 82.2396 64.4047 81.5502 63.994L76.3802 60.606V58.78L80.6702 54.248L82.2322 55.722L78.6902 59.418L83.0022 62.234C83.5889 62.6153 84.0436 63.1067 84.3662 63.708C84.6889 64.3093 84.8503 64.984 84.8503 65.732C84.8503 66.5093 84.6596 67.228 84.2782 67.888C83.9116 68.5333 83.4056 69.0467 82.7602 69.428C82.1149 69.8093 81.4036 70 80.6262 70H73.6302ZM74.4002 57.152L78.2722 53.06L79.3942 54.204L75.5222 58.296L74.4002 57.152ZM88.7384 73.916C90.1024 73.3293 91.1071 72.8527 91.7524 72.486C92.4124 72.134 92.8744 71.7673 93.1384 71.386C93.4171 71.0193 93.5564 70.5573 93.5564 70H91.5324C90.7111 70 89.9557 69.8167 89.2664 69.45C88.5917 69.0687 88.0491 68.548 87.6384 67.888C87.2424 67.228 87.0444 66.4947 87.0444 65.688C87.0444 64.8813 87.2424 64.1407 87.6384 63.466C88.0491 62.7913 88.5917 62.256 89.2664 61.86C89.9557 61.4493 90.7111 61.244 91.5324 61.244C92.3244 61.244 93.0504 61.442 93.7104 61.838C94.3704 62.234 94.8837 62.7767 95.2504 63.466C95.6317 64.1407 95.8224 64.8813 95.8224 65.688V69.098C95.8224 70.3153 95.6024 71.3053 95.1624 72.068C94.7371 72.8307 94.0917 73.476 93.2264 74.004C92.3757 74.5467 91.1144 75.1847 89.4424 75.918L88.7384 73.916ZM91.5324 67.734H93.5564V65.688C93.5564 65.116 93.3584 64.632 92.9624 64.236C92.5664 63.8253 92.0897 63.62 91.5324 63.62C90.9457 63.62 90.4471 63.8253 90.0364 64.236C89.6404 64.632 89.4424 65.116 89.4424 65.688C89.4424 66.2747 89.6404 66.766 90.0364 67.162C90.4471 67.5433 90.9457 67.734 91.5324 67.734ZM95.7124 67.602H96.9664C97.1131 67.602 97.1864 67.6753 97.1864 67.822V69.78C97.1864 69.9267 97.1131 70 96.9664 70H95.7124V67.602ZM96.9623 70C96.8156 70 96.7423 69.9267 96.7423 69.78V67.822C96.7423 67.6753 96.8156 67.602 96.9623 67.602H97.7983C98.2383 67.602 98.6123 67.448 98.9203 67.14C99.2283 66.832 99.3823 66.458 99.3823 66.018V55.392H101.648V66.15C101.648 66.854 101.48 67.4993 101.142 68.086C100.805 68.6727 100.343 69.142 99.7563 69.494C99.1696 69.8313 98.5243 70 97.8203 70H96.9623Z" fill="white"/>
</svg>
