<svg width="165" height="125" viewBox="0 0 165 125" fill="none" xmlns="http://www.w3.org/2000/svg">
<path d="M16.7517 6.78125H112.384L112.092 7.52133L104.948 25.286L17.7427 25.3577C17.7427 25.3577 14.5826 25.5344 12.8284 25.9313L13.0103 25.8673V10.5201C13.0103 10.0289 13.1071 9.5425 13.2951 9.08871C13.4832 8.63493 13.7588 8.22265 14.1063 7.87543C14.4537 7.52821 14.8662 7.25286 15.3201 7.06512C15.774 6.87738 16.2605 6.78091 16.7517 6.78125Z" fill="#4FB3BF"/>
<path d="M17.7478 25.3551L104.953 25.2834L112.098 7.51869L115.119 1.49287e-05H156.861C157.904 -0.00200984 158.938 0.201947 159.902 0.600185C160.866 0.998423 161.742 1.5831 162.479 2.32068C163.217 3.05825 163.802 3.93421 164.2 4.89829C164.598 5.86237 164.802 6.89559 164.8 7.93868V116.322C164.802 117.365 164.598 118.398 164.2 119.362C163.802 120.326 163.217 121.202 162.479 121.94C161.742 122.678 160.866 123.262 159.902 123.66C158.938 124.059 157.904 124.263 156.861 124.261H8.73868C6.63322 124.261 4.614 123.424 3.1252 121.935C1.63641 120.447 0.800018 118.427 0.800018 116.322V41.7395C0.808777 38.1546 1.98753 34.6706 4.15718 31.8169C6.32681 28.9632 9.36874 26.8957 12.8207 25.9287C14.5826 25.5318 17.7478 25.3551 17.7478 25.3551ZM2.57213 106.534V112.45H163.007V106.534H2.57213Z" fill="#003E43"/>
<path d="M2.55002 106.5H33.55V112.5H2.55002V106.5Z" fill="#4FB3BF"/>
<path d="M62.5969 74.026C63.6676 73.4247 64.4302 72.948 64.8849 72.596C65.3542 72.2587 65.6916 71.848 65.8969 71.364C66.1169 70.8947 66.2269 70.2493 66.2269 69.428V62.498H68.4929V69.406C68.4929 70.55 68.3316 71.4887 68.0089 72.222C67.6862 72.9553 67.1729 73.5933 66.4689 74.136C65.7796 74.6787 64.7749 75.2727 63.4549 75.918L62.5969 74.026ZM74.6824 70C73.9784 70 73.3331 69.8313 72.7464 69.494C72.1598 69.142 71.6978 68.6727 71.3604 68.086C71.0231 67.4993 70.8544 66.854 70.8544 66.15V55.392H73.1204V66.018C73.1204 66.458 73.2744 66.832 73.5824 67.14C73.8904 67.448 74.2571 67.602 74.6824 67.602H75.7604C75.9071 67.602 75.9804 67.6753 75.9804 67.822V69.78C75.9804 69.9267 75.9071 70 75.7604 70H74.6824ZM75.7639 70C75.6172 70 75.5439 69.9267 75.5439 69.78V67.822C75.5439 67.6753 75.6172 67.602 75.7639 67.602H77.6339C78.0739 67.602 78.4406 67.448 78.7339 67.14C79.0419 66.832 79.1959 66.458 79.1959 66.018V61.838H81.4619V66.15C81.4619 66.854 81.2932 67.4993 80.9559 68.086C80.6186 68.6727 80.1566 69.142 79.5699 69.494C78.9832 69.8313 78.3379 70 77.6339 70H75.7639ZM75.8079 57.592H78.0519V59.814H75.8079V57.592ZM79.1959 57.592H81.4179V59.814H79.1959V57.592ZM83.7666 55.392H86.0326V70H83.7666V55.392ZM90.0986 73.916C91.4626 73.3293 92.4673 72.8527 93.1126 72.486C93.7726 72.134 94.2346 71.7673 94.4986 71.386C94.7773 71.0193 94.9166 70.5573 94.9166 70H92.8926C92.0713 70 91.3159 69.8167 90.6266 69.45C89.9519 69.0687 89.4093 68.548 88.9986 67.888C88.6026 67.228 88.4046 66.4947 88.4046 65.688C88.4046 64.8813 88.6026 64.1407 88.9986 63.466C89.4093 62.7913 89.9519 62.256 90.6266 61.86C91.3159 61.4493 92.0713 61.244 92.8926 61.244C93.6846 61.244 94.4106 61.442 95.0706 61.838C95.7306 62.234 96.2439 62.7767 96.6106 63.466C96.9919 64.1407 97.1826 64.8813 97.1826 65.688V69.098C97.1826 70.3153 96.9626 71.3053 96.5226 72.068C96.0973 72.8307 95.4519 73.476 94.5866 74.004C93.7359 74.5467 92.4746 75.1847 90.8026 75.918L90.0986 73.916ZM94.9166 67.734V65.688C94.9166 65.116 94.7186 64.632 94.3226 64.236C93.9266 63.8253 93.4499 63.62 92.8926 63.62C92.3059 63.62 91.8073 63.8253 91.3966 64.236C91.0006 64.632 90.8026 65.116 90.8026 65.688C90.8026 66.2747 91.0006 66.766 91.3966 67.162C91.8073 67.5433 92.3059 67.734 92.8926 67.734H94.9166ZM98.9335 56.624H101.199V70H98.9335V56.624ZM96.2935 55.018C96.2935 54.446 96.4768 53.984 96.8435 53.632C97.2102 53.28 97.6648 53.104 98.2075 53.104H102.959V54.864H98.4495C98.2735 54.864 98.1268 54.9227 98.0095 55.04C97.8922 55.1427 97.8335 55.2893 97.8335 55.48V56.448H96.2935V55.018Z" fill="white"/>
</svg>
