<svg width="165" height="125" viewBox="0 0 165 125" fill="none" xmlns="http://www.w3.org/2000/svg">
<path d="M16.1517 6.78125H111.784L111.492 7.52133L104.348 25.286L17.1427 25.3577C17.1427 25.3577 13.9826 25.5344 12.2284 25.9313L12.4102 25.8673V10.5201C12.4102 10.0289 12.507 9.5425 12.6951 9.08871C12.8831 8.63493 13.1588 8.22265 13.5062 7.87543C13.8537 7.52821 14.2662 7.25286 14.7201 7.06512C15.174 6.87738 15.6604 6.78091 16.1517 6.78125Z" fill="#4FB3BF"/>
<path d="M17.1478 25.3551L104.353 25.2834L111.497 7.51869L114.519 1.49287e-05H156.261C157.304 -0.00200984 158.338 0.201947 159.302 0.600185C160.266 0.998423 161.142 1.5831 161.879 2.32068C162.617 3.05825 163.202 3.93421 163.6 4.89829C163.998 5.86237 164.202 6.89559 164.2 7.93868V116.322C164.202 117.365 163.998 118.398 163.6 119.362C163.202 120.326 162.617 121.202 161.879 121.94C161.142 122.678 160.266 123.262 159.302 123.66C158.338 124.059 157.304 124.263 156.261 124.261H8.13864C6.03319 124.261 4.01396 123.424 2.52516 121.935C1.03638 120.447 0.199982 118.427 0.199982 116.322V41.7395C0.20874 38.1546 1.3875 34.6706 3.55714 31.8169C5.72678 28.9632 8.76871 26.8957 12.2207 25.9287C13.9825 25.5318 17.1478 25.3551 17.1478 25.3551ZM1.97209 106.534V112.45H162.407V106.534H1.97209Z" fill="#003E43"/>
<path d="M1.94998 106.5H32.95V112.5H1.94998V106.5Z" fill="#4FB3BF"/>
<path d="M48.6127 70C47.9087 70 47.2634 69.8313 46.6767 69.494C46.09 69.142 45.628 68.6727 45.2907 68.086C44.9534 67.4993 44.7847 66.854 44.7847 66.15V55.392H47.0507V66.018C47.0507 66.458 47.2047 66.832 47.5127 67.14C47.8207 67.448 48.1874 67.602 48.6127 67.602H49.6907C49.8374 67.602 49.9107 67.6753 49.9107 67.822V69.78C49.9107 69.9267 49.8374 70 49.6907 70H48.6127ZM56.1401 67.602C56.7268 67.602 57.2035 67.3967 57.5701 66.986C57.9515 66.5753 58.1421 66.106 58.1421 65.578C58.1421 65.0647 57.9515 64.6027 57.5701 64.192C57.2035 63.7667 56.7268 63.554 56.1401 63.554C55.5681 63.554 55.0841 63.752 54.6881 64.148C54.2921 64.5293 54.0941 65.006 54.0941 65.578C54.0941 66.194 54.2995 66.6853 54.7101 67.052C55.1355 67.4187 55.6121 67.602 56.1401 67.602H61.3541C61.9261 67.602 62.4101 67.4113 62.8061 67.03C63.2168 66.634 63.4221 66.15 63.4221 65.578C63.4221 65.006 63.2168 64.5293 62.8061 64.148C62.4101 63.752 61.9261 63.554 61.3541 63.554H50.8821V61.266H61.3541C62.1608 61.266 62.9015 61.4567 63.5761 61.838C64.2655 62.2193 64.8081 62.74 65.2041 63.4C65.6148 64.06 65.8201 64.786 65.8201 65.578C65.8201 66.3847 65.6148 67.1253 65.2041 67.8C64.8081 68.4747 64.2655 69.01 63.5761 69.406C62.8868 69.802 62.1461 70 61.3541 70H56.0081C55.1721 70 54.4315 69.7873 53.7861 69.362C53.1408 68.9367 52.6421 68.3867 52.2901 67.712C51.9381 67.0227 51.7621 66.3113 51.7621 65.578C51.7621 64.9033 51.9455 64.2507 52.3121 63.62C52.6935 62.9893 53.2141 62.476 53.8741 62.08C54.5488 61.684 55.3041 61.486 56.1401 61.486C57.0788 61.486 57.8415 61.728 58.4281 62.212C59.0295 62.696 59.4621 63.2607 59.7261 63.906C60.0048 64.5367 60.1441 65.094 60.1441 65.578C60.1441 66.4873 59.9388 67.2793 59.5281 67.954C59.1175 68.6287 58.5895 69.142 57.9441 69.494C57.3135 69.8313 56.6681 70 56.0081 70H49.6501L49.6721 67.602H56.1401ZM79.0136 74.092C77.8256 74.092 76.7256 73.7913 75.7136 73.19C74.7016 72.6033 73.8949 71.804 73.2936 70.792C72.7069 69.78 72.4136 68.68 72.4136 67.492V63.378H74.6796V67.36C74.6796 68.152 74.8703 68.8853 75.2516 69.56C75.6476 70.22 76.1756 70.7407 76.8356 71.122C77.5103 71.518 78.2363 71.716 79.0136 71.716C79.8056 71.716 80.5316 71.518 81.1916 71.122C81.8663 70.7407 82.3943 70.22 82.7756 69.56C83.1716 68.8853 83.3696 68.152 83.3696 67.36V62.498H85.6356V67.492C85.6356 68.68 85.3349 69.78 84.7336 70.792C84.1469 71.804 83.3476 72.6033 82.3356 73.19C81.3236 73.7913 80.2163 74.092 79.0136 74.092ZM77.8696 60.958H80.1136V63.202H77.8696V60.958ZM89.6812 73.916C91.0452 73.3293 92.0499 72.8527 92.6952 72.486C93.3552 72.134 93.8172 71.7673 94.0812 71.386C94.3599 71.0193 94.4992 70.5573 94.4992 70H92.4752C91.6539 70 90.8985 69.8167 90.2092 69.45C89.5345 69.0687 88.9919 68.548 88.5812 67.888C88.1852 67.228 87.9872 66.4947 87.9872 65.688C87.9872 64.8813 88.1852 64.1407 88.5812 63.466C88.9919 62.7913 89.5345 62.256 90.2092 61.86C90.8985 61.4493 91.6539 61.244 92.4752 61.244C93.2672 61.244 93.9932 61.442 94.6532 61.838C95.3132 62.234 95.8265 62.7767 96.1932 63.466C96.5745 64.1407 96.7652 64.8813 96.7652 65.688V69.098C96.7652 70.3153 96.5452 71.3053 96.1052 72.068C95.6799 72.8307 95.0345 73.476 94.1692 74.004C93.3185 74.5467 92.0572 75.1847 90.3852 75.918L89.6812 73.916ZM92.4752 67.734H94.4992V65.688C94.4992 65.116 94.3012 64.632 93.9052 64.236C93.5092 63.8253 93.0325 63.62 92.4752 63.62C91.8885 63.62 91.3899 63.8253 90.9792 64.236C90.5832 64.632 90.3852 65.116 90.3852 65.688C90.3852 66.2747 90.5832 66.766 90.9792 67.162C91.3899 67.5433 91.8885 67.734 92.4752 67.734ZM96.6552 67.602H97.9092C98.0559 67.602 98.1292 67.6753 98.1292 67.822V69.78C98.1292 69.9267 98.0559 70 97.9092 70H96.6552V67.602ZM97.9051 70C97.7584 70 97.6851 69.9267 97.6851 69.78V67.822C97.6851 67.6753 97.7584 67.602 97.9051 67.602H102.767C103.28 67.602 103.728 67.4187 104.109 67.052C104.49 66.6853 104.681 66.2233 104.681 65.666C104.681 64.962 104.336 64.4047 103.647 63.994L98.4991 60.606V58.78L102.789 54.248L104.329 55.722L100.809 59.418L105.099 62.234C105.686 62.6153 106.14 63.1067 106.463 63.708C106.786 64.3093 106.947 64.984 106.947 65.732C106.947 66.5093 106.756 67.228 106.375 67.888C106.008 68.5333 105.502 69.0467 104.857 69.428C104.212 69.8093 103.508 70 102.745 70H97.9051ZM108.509 70C107.468 70 106.639 69.6333 106.023 68.9C105.422 68.1667 105.121 67.2573 105.121 66.172V65.71H106.947V66.04C106.962 66.48 107.116 66.854 107.409 67.162C107.717 67.4553 108.084 67.602 108.509 67.602H109.499C109.646 67.602 109.719 67.6753 109.719 67.822V69.78C109.719 69.9267 109.646 70 109.499 70H108.509ZM109.507 70C109.36 70 109.287 69.9267 109.287 69.78V67.822C109.287 67.6753 109.36 67.602 109.507 67.602H111.377C111.817 67.602 112.183 67.448 112.477 67.14C112.785 66.832 112.939 66.458 112.939 66.018V61.838H115.205V66.15C115.205 66.854 115.036 67.4993 114.699 68.086C114.361 68.6727 113.899 69.142 113.313 69.494C112.726 69.8313 112.081 70 111.377 70H109.507ZM109.529 72.024H111.773V74.268H109.529V72.024ZM112.917 72.024H115.139V74.268H112.917V72.024ZM117.595 55.392H119.861V70H117.595V55.392Z" fill="white"/>
</svg>
