<svg width="164" height="125" viewBox="0 0 164 125" fill="none" xmlns="http://www.w3.org/2000/svg">
<path d="M15.9517 6.78125H111.584L111.292 7.52133L104.148 25.286L16.9427 25.3577C16.9427 25.3577 13.7826 25.5344 12.0284 25.9313L12.2103 25.8673V10.5201C12.2103 10.0289 12.3071 9.5425 12.4951 9.08871C12.6832 8.63493 12.9588 8.22265 13.3063 7.87543C13.6537 7.52821 14.0662 7.25286 14.5201 7.06512C14.974 6.87738 15.4605 6.78091 15.9517 6.78125Z" fill="#4FB3BF"/>
<path d="M16.9478 25.3551L104.153 25.2834L111.298 7.51869L114.319 1.49287e-05H156.061C157.104 -0.00200984 158.138 0.201947 159.102 0.600185C160.066 0.998423 160.942 1.5831 161.679 2.32068C162.417 3.05825 163.002 3.93421 163.4 4.89829C163.798 5.86237 164.002 6.89559 164 7.93868V116.322C164.002 117.365 163.798 118.398 163.4 119.362C163.002 120.326 162.417 121.202 161.679 121.94C160.942 122.678 160.066 123.262 159.102 123.66C158.138 124.059 157.104 124.263 156.061 124.261H7.93866C5.83321 124.261 3.81398 123.424 2.32518 121.935C0.836395 120.447 0 118.427 0 116.322V41.7395C0.00875854 38.1546 1.18752 34.6706 3.35716 31.8169C5.52679 28.9632 8.56873 26.8957 12.0207 25.9287C13.7825 25.5318 16.9478 25.3551 16.9478 25.3551ZM1.77211 106.534V112.45H162.207V106.534H1.77211Z" fill="#003E43"/>
<path d="M1.75 106.5H32.75V112.5H1.75V106.5Z" fill="#4FB3BF"/>
<path d="M49.3258 70C48.6218 70 47.9765 69.8313 47.3898 69.494C46.8031 69.142 46.3411 68.6727 46.0038 68.086C45.6665 67.4993 45.4978 66.854 45.4978 66.15V55.392H47.7638V66.018C47.7638 66.458 47.9178 66.832 48.2258 67.14C48.5338 67.448 48.9005 67.602 49.3258 67.602H50.4038C50.5505 67.602 50.6238 67.6753 50.6238 67.822V69.78C50.6238 69.9267 50.5505 70 50.4038 70H49.3258ZM56.8532 67.602C57.4399 67.602 57.9166 67.3967 58.2832 66.986C58.6646 66.5753 58.8552 66.106 58.8552 65.578C58.8552 65.0647 58.6646 64.6027 58.2832 64.192C57.9166 63.7667 57.4399 63.554 56.8532 63.554C56.2812 63.554 55.7972 63.752 55.4012 64.148C55.0052 64.5293 54.8072 65.006 54.8072 65.578C54.8072 66.194 55.0126 66.6853 55.4232 67.052C55.8486 67.4187 56.3252 67.602 56.8532 67.602H62.0672C62.6392 67.602 63.1232 67.4113 63.5192 67.03C63.9299 66.634 64.1352 66.15 64.1352 65.578C64.1352 65.006 63.9299 64.5293 63.5192 64.148C63.1232 63.752 62.6392 63.554 62.0672 63.554H51.5952V61.266H62.0672C62.8739 61.266 63.6146 61.4567 64.2892 61.838C64.9786 62.2193 65.5212 62.74 65.9172 63.4C66.3279 64.06 66.5332 64.786 66.5332 65.578C66.5332 66.3847 66.3279 67.1253 65.9172 67.8C65.5212 68.4747 64.9786 69.01 64.2892 69.406C63.5999 69.802 62.8592 70 62.0672 70H56.7212C55.8852 70 55.1446 69.7873 54.4992 69.362C53.8539 68.9367 53.3552 68.3867 53.0032 67.712C52.6512 67.0227 52.4752 66.3113 52.4752 65.578C52.4752 64.9033 52.6586 64.2507 53.0252 63.62C53.4066 62.9893 53.9272 62.476 54.5872 62.08C55.2619 61.684 56.0172 61.486 56.8532 61.486C57.7919 61.486 58.5546 61.728 59.1412 62.212C59.7426 62.696 60.1752 63.2607 60.4392 63.906C60.7179 64.5367 60.8572 65.094 60.8572 65.578C60.8572 66.4873 60.6519 67.2793 60.2412 67.954C59.8306 68.6287 59.3026 69.142 58.6572 69.494C58.0266 69.8313 57.3812 70 56.7212 70H50.3632L50.3852 67.602H56.8532ZM77.5707 69.362C76.764 69.362 76.016 69.164 75.3267 68.768C74.6374 68.3573 74.0874 67.8147 73.6767 67.14C73.2807 66.4507 73.0827 65.7027 73.0827 64.896C73.0827 64.104 73.2807 63.378 73.6767 62.718C74.0874 62.058 74.6374 61.5447 75.3267 61.178C76.016 60.7967 76.764 60.606 77.5707 60.606H79.6167V59.286H81.8607V64.896C81.8607 65.7027 81.67 66.4507 81.2887 67.14C80.922 67.8293 80.4087 68.372 79.7487 68.768C79.1034 69.164 78.3774 69.362 77.5707 69.362ZM77.5707 66.964C78.1574 66.964 78.6414 66.766 79.0227 66.37C79.4187 65.974 79.6167 65.4827 79.6167 64.896V62.872H77.5707C76.984 62.872 76.4927 63.07 76.0967 63.466C75.7007 63.8473 75.5027 64.324 75.5027 64.896C75.5027 65.4827 75.7007 65.974 76.0967 66.37C76.4927 66.766 76.984 66.964 77.5707 66.964ZM83.4227 70C82.7334 70 82.1174 69.8313 81.5747 69.494C81.0467 69.1567 80.636 68.6947 80.3427 68.108C80.0494 67.5213 79.9027 66.876 79.9027 66.172V62.498H81.8607V66.04C81.8607 66.48 82.0074 66.854 82.3007 67.162C82.6087 67.4553 82.9827 67.602 83.4227 67.602H84.4127C84.5594 67.602 84.6327 67.6753 84.6327 67.822V69.78C84.6327 69.9267 84.5594 70 84.4127 70H83.4227ZM84.197 67.822C84.197 67.6753 84.2703 67.602 84.417 67.602H85.737C86.1623 67.602 86.529 67.4553 86.837 67.162C87.145 66.854 87.299 66.48 87.299 66.04V62.498H89.565V66.04C89.565 66.48 89.719 66.854 90.027 67.162C90.335 67.4553 90.7017 67.602 91.127 67.602H92.469C92.6157 67.602 92.689 67.6753 92.689 67.822V69.78C92.689 69.9267 92.6157 70 92.469 70H91.127C90.555 70 90.0343 69.8753 89.565 69.626C89.1103 69.3767 88.7363 69.032 88.443 68.592C88.1497 69.032 87.7683 69.3767 87.299 69.626C86.8443 69.8753 86.3237 70 85.737 70H84.417C84.2703 70 84.197 69.9267 84.197 69.78V67.822ZM85.649 58.23H87.871V60.452H85.649V58.23ZM89.015 58.23H91.259V60.452H89.015V58.23ZM104.244 70C103.202 70 102.374 69.6333 101.758 68.9C101.156 68.1667 100.856 67.2573 100.856 66.172V62.498H102.682V66.04C102.682 66.48 102.836 66.854 103.144 67.162C103.452 67.4553 103.818 67.602 104.244 67.602H105.454V61.838H107.72V70H104.244ZM92.4736 70C92.327 70 92.2536 69.9267 92.2536 69.78V67.822C92.2536 67.6753 92.327 67.602 92.4736 67.602H93.4636C93.889 67.602 94.2556 67.4553 94.5636 67.162C94.8716 66.854 95.0256 66.48 95.0256 66.04V62.498H96.8516V66.172C96.8516 67.2573 96.5436 68.1667 95.9276 68.9C95.3263 69.6333 94.505 70 93.4636 70H92.4736ZM98.8536 70.044C97.8123 70.044 96.9836 69.6773 96.3676 68.944C95.7663 68.2107 95.4656 67.3013 95.4656 66.216V62.498H97.2916V66.084C97.2916 66.524 97.4456 66.898 97.7536 67.206C98.0616 67.4993 98.4283 67.646 98.8536 67.646C99.2936 67.646 99.6603 67.4993 99.9536 67.206C100.262 66.898 100.416 66.524 100.416 66.084V62.498H102.242V66.216C102.242 67.3013 101.934 68.2107 101.318 68.944C100.716 69.6773 99.895 70.044 98.8536 70.044ZM109.905 67.602H115.097C115.537 67.602 115.904 67.4553 116.197 67.162C116.505 66.8687 116.659 66.5093 116.659 66.084C116.659 65.7907 116.586 65.534 116.439 65.314C116.293 65.0793 116.051 64.8447 115.713 64.61L111.423 61.662L112.699 59.814L117.341 63.004C117.855 63.3853 118.251 63.8253 118.529 64.324C118.808 64.808 118.947 65.3727 118.947 66.018C118.947 66.7513 118.764 67.426 118.397 68.042C118.031 68.6433 117.539 69.12 116.923 69.472C116.307 69.824 115.633 70 114.899 70H109.905V67.602Z" fill="white"/>
</svg>
