<svg
      xmlns="http://www.w3.org/2000/svg"
      width="25"
      height="24"
      fill="none"
      viewBox="0 0 25 24"
    >
      <path
        stroke="#00838F"
        strokeLinecap="round"
        strokeLinejoin="round"
        strokeWidth="1.5"
        d="M16.08 12.002c0 1.98-1.6 3.58-3.58 3.58s-3.58-1.6-3.58-3.58 1.6-3.58 3.58-3.58 3.58 1.6 3.58 3.58z"
      ></path>
      <path
        stroke="#00838F"
        strokeLinecap="round"
        strokeLinejoin="round"
        strokeWidth="1.5"
        d="M12.5 20.269c3.53 0 6.82-2.08 9.11-5.68.9-1.41.9-3.78 0-5.19-2.29-3.6-5.58-5.68-9.11-5.68-3.53 0-6.82 2.08-9.11 5.68-.9 1.41-.9 3.78 0 5.19 2.29 3.6 5.58 5.68 9.11 5.68z"
      ></path>
    </svg>